<!DOCTYPE svg PUBLIC "-//W3C//DTD SVG 20010904//EN" "http://www.w3.org/TR/2001/REC-SVG-20010904/DTD/svg10.dtd">
<svg version="1.0" xmlns="http://www.w3.org/2000/svg" width="252px" height="280px" viewBox="0 0 2520 2800" preserveAspectRatio="xMidYMid meet">
<g id="layer101" fill="#000000" stroke="none">
 <path d="M1140 2775 c-111 -25 -205 -79 -290 -164 -116 -117 -170 -245 -170 -403 0 -42 -5 -80 -10 -83 -6 -4 -50 -8 -98 -10 -314 -12 -562 -266 -562 -577 0 -105 15 -168 62 -267 55 -115 144 -204 259 -259 85 -41 162 -62 224 -62 l35 0 0 109 0 108 -49 6 c-110 13 -226 99 -278 206 -38 77 -44 193 -13 274 29 76 74 134 140 179 141 96 313 83 446 -34 147 -128 255 -173 424 -173 175 0 295 49 417 171 115 116 168 248 166 419 -1 194 -102 374 -267 480 -122 78 -301 111 -436 80z m280 -55 c156 -45 295 -178 352 -337 26 -71 35 -216 18 -296 -59 -285 -358 -476 -646 -412 -103 23 -170 58 -272 143 -108 91 -174 117 -292 117 -74 -1 -94 -5 -152 -32 -216 -102 -303 -345 -197 -555 53 -105 173 -197 281 -214 l38 -7 0 -68 c0 -38 -3 -69 -7 -69 -43 1 -157 36 -213 66 -84 44 -183 144 -222 226 -178 365 79 788 478 788 119 0 129 11 137 145 9 150 52 258 145 357 141 151 349 207 552 148z"/>
 <path d="M1145 2592 c-116 -40 -205 -118 -253 -220 -24 -51 -27 -69 -27 -167 0 -102 2 -115 31 -175 39 -82 108 -151 193 -193 61 -30 72 -32 171 -32 102 0 109 1 182 38 230 113 296 389 143 597 -100 136 -294 203 -440 152z m266 -58 c78 -35 159 -121 190 -201 34 -91 31 -191 -8 -276 -39 -81 -100 -144 -179 -183 -53 -26 -69 -29 -154 -29 -84 1 -101 4 -153 30 -68 34 -149 116 -179 182 -18 38 -22 67 -23 143 0 88 3 101 33 162 33 67 96 134 154 164 96 50 219 53 319 8z"/>
 <path d="M1940 2012 c0 -105 1 -110 23 -116 12 -3 31 -6 43 -6 39 0 141 -60 187 -109 58 -61 83 -112 98 -194 36 -197 -118 -396 -321 -414 -86 -8 -143 3 -155 30 -9 21 -17 22 -127 25 -112 3 -117 4 -120 25 l-3 22 -335 0 -335 0 -3 -22 c-3 -22 -7 -23 -116 -23 -74 0 -116 -4 -124 -12 -8 -8 -12 -67 -12 -200 0 -178 -1 -188 -19 -188 -34 0 -29 -25 28 -135 l56 -110 67 -5 67 -5 186 -184 185 -185 0 -97 c0 -113 -4 -109 106 -109 84 0 98 12 70 55 -15 23 -15 27 0 50 28 43 13 55 -66 55 -66 0 -70 1 -70 23 0 17 51 74 185 208 l186 184 67 5 67 5 56 110 c31 60 55 115 52 121 -3 7 -14 14 -26 16 -18 2 -23 11 -25 47 -2 24 1 48 6 53 5 5 47 11 93 13 184 6 312 59 430 175 163 161 216 380 143 598 -75 224 -245 359 -501 397 l-43 7 0 -110z m172 32 c140 -46 276 -181 330 -331 32 -88 37 -241 10 -330 -41 -134 -144 -263 -260 -326 -73 -40 -191 -67 -289 -67 l-83 0 0 73 0 72 113 0 c102 0 117 2 169 28 133 65 223 193 235 333 15 184 -112 368 -293 423 l-59 19 -3 67 -3 68 43 -7 c24 -4 64 -13 90 -22z m-1082 -844 c0 -32 30 -70 55 -70 12 0 15 -19 15 -115 0 -137 -2 -135 130 -135 132 0 130 -2 130 135 0 96 3 115 15 115 25 0 55 38 55 70 0 29 1 30 50 30 l50 0 0 -272 0 -272 -150 -150 -149 -151 -40 39 c-36 35 -61 41 -61 13 0 -17 82 -97 99 -97 9 0 91 75 182 166 119 119 172 165 183 161 9 -4 16 -14 16 -24 0 -22 -359 -383 -380 -383 -21 0 -380 361 -380 383 0 37 31 30 79 -17 44 -44 81 -59 81 -35 0 7 -18 31 -40 55 l-40 44 0 270 0 270 50 0 c49 0 50 -1 50 -30z m350 5 l0 -25 -150 0 -150 0 0 25 0 25 150 0 150 0 0 -25z m-490 -50 l0 -25 -100 0 -100 0 0 25 0 25 100 0 100 0 0 -25z m880 0 l0 -25 -100 0 -100 0 0 25 0 25 100 0 100 0 0 -25z m-560 -125 l0 -100 -35 0 -35 0 0 100 0 100 35 0 35 0 0 -100z m110 0 l0 -100 -35 0 -35 0 0 100 0 100 35 0 35 0 0 -100z m-430 -75 l0 -125 -100 0 -100 0 0 125 0 125 100 0 100 0 0 -125z m880 0 l0 -125 -100 0 -100 0 0 125 0 125 100 0 100 0 0 -125z m-880 -210 c0 -30 -3 -35 -23 -35 -26 0 -51 -23 -61 -57 -6 -18 -15 -23 -42 -23 -32 0 -36 4 -69 70 -19 38 -35 72 -35 75 0 3 52 5 115 5 l115 0 0 -35z m910 30 c0 -3 -16 -37 -35 -75 -33 -66 -37 -70 -69 -70 -27 0 -36 5 -42 23 -10 34 -35 57 -61 57 -20 0 -23 5 -23 35 l0 35 115 0 c63 0 115 -2 115 -5z m-473 -690 c-1 -34 -2 -35 -39 -35 -35 0 -38 2 -38 28 0 36 6 42 46 42 30 0 32 -2 31 -35z"/>
 <path d="M1103 815 c-11 -30 12 -36 133 -33 111 3 119 4 119 23 0 19 -8 20 -123 23 -105 2 -123 0 -129 -13z"/>
 <path d="M1203 650 c-55 -22 -67 -102 -20 -135 73 -51 165 42 105 108 -27 30 -55 39 -85 27z m55 -66 c4 -29 -23 -51 -43 -34 -16 13 -20 42 -8 54 14 14 48 1 51 -20z"/>
 <path d="M1057 534 c-14 -15 -6 -34 14 -34 14 0 19 5 17 17 -3 18 -20 27 -31 17z"/>
 </g>

</svg>